<?xml version="1.0" encoding="UTF-8"?>
<svg id="Capa_1" data-name="Capa 1" xmlns="http://www.w3.org/2000/svg" viewBox="0 0 1920 1080">
  <path fill="#FFFFFF" d="M1341.67,731.93c0-79.81-64.93-144.73-144.73-144.73s-144.73,64.93-144.73,144.73,64.93,144.73,144.73,144.73c28.36,0,54.81-8.23,77.17-22.38l24.18,24.18,36.77-36.77-22.64-22.64c18.35-24.26,29.25-54.44,29.25-87.13ZM1271.79,778.43l-44.69-44.69-36.77,36.77,42.09,42.09c-10.87,4.8-22.87,7.48-35.49,7.48-48.61,0-88.16-39.55-88.16-88.16s39.55-88.16,88.16-88.16,88.16,39.55,88.16,88.16c0,17.06-4.88,32.99-13.31,46.5Z"/>
  <polygon fill="#FFFFFF" points="1119.39 485.76 968.57 485.76 1118.97 307.66 1119.39 307.16 1119.39 258.54 897.38 258.54 897.38 308.3 1048.7 308.3 897.38 486.91 897.38 535.52 1119.39 535.52 1119.39 485.76"/>
  <path fill="#FFFFFF" d="M802.08,628.87c-9.61-12.93-43.29-36.1-95.26-36.1-23.84,0-45.57,6-65.22,18.13-19.65,12.06-35.17,28.96-46.37,50.63-11.27,21.67-16.9,46.22-16.9,73.67s5.63,51.86,16.9,73.16c11.27,21.31,26.65,37.77,46.15,49.33h-.07c19.5,11.56,41.31,17.33,65.51,17.33,20.51,0,64.31-3.77,95.26-34.02v34.02h56.55v-277.78h-56.55v31.62ZM790.45,783.22c-7.8,13.87-18.06,24.49-30.77,31.78-12.71,7.29-26.22,10.91-40.45,10.91s-28.17-3.54-40.95-10.69c-12.71-7.15-22.97-17.55-30.77-31.27-7.8-13.72-11.63-30.05-11.63-48.9s3.9-35.39,11.63-49.62v.14c7.8-14.23,18.06-25.06,30.77-32.5,12.71-7.44,26.36-11.2,40.95-11.2s27.73,3.61,40.45,10.91c12.71,7.29,22.97,17.91,30.77,31.99,7.8,14.09,11.63,30.48,11.63,49.33s-3.9,35.25-11.63,49.11Z"/>
  <path fill="#FFFFFF" d="M816.93,273.05h.07c-19.5-11.56-41.31-17.34-65.51-17.34-20.51,0-64.31,3.77-95.26,34.02v-88.21h-56.55v331.96h56.55v-31.62c9.61,12.93,43.29,36.1,95.26,36.1,23.84,0,45.57-5.99,65.22-18.13,19.65-12.06,35.17-28.96,46.37-50.63,11.27-21.67,16.9-46.22,16.9-73.67s-5.63-51.86-16.9-73.16c-11.27-21.31-26.65-37.77-46.15-49.33ZM817.35,445.31v-.14c-8.13,14.23-18.82,25.06-32.07,32.5-13.25,7.44-27.48,11.2-42.69,11.2s-28.91-3.61-42.16-10.91c-13.25-7.29-23.94-17.91-32.07-31.99-8.13-14.08-12.12-30.48-12.12-49.33s4.07-35.25,12.12-49.11c8.13-13.87,18.82-24.48,32.07-31.78,13.25-7.29,27.33-10.91,42.16-10.91s29.36,3.54,42.69,10.69c13.25,7.15,23.94,17.55,32.07,31.27,8.13,13.72,12.12,30.05,12.12,48.9s-4.07,35.39-12.12,49.62Z"/>
  <path fill="#FFFFFF" d="M897.71,626.06v246.99h58.12v-217.94h87.17v-58.12h-116.23c-16.05,0-29.06,13.01-29.06,29.06Z"/>
</svg>